<svg xmlns="http://www.w3.org/2000/svg" width="22.292" height="22.316" viewBox="0 0 22.292 22.316"><path d="M10.119,16.167h4.632v14.9H10.119ZM12.471,8.76A2.681,2.681,0,1,1,9.79,11.441h0A2.681,2.681,0,0,1,12.471,8.76" transform="translate(-9.79 -8.76)" fill="#fff"/><path d="M16.48,15.108h4.433v2.034h.059a4.868,4.868,0,0,1,4.386-2.352c4.7,0,5.55,3.081,5.55,7.055v8.172H26.274V22.774c0-1.728,0-3.951-2.352-3.951s-2.775,1.881-2.775,3.821v7.372H16.527Z" transform="translate(-8.614 -7.701)" fill="#fff"/></svg>