<?xml version="1.0" encoding="UTF-8"?>
<svg id="Layer_1" data-name="Layer 1" xmlns="http://www.w3.org/2000/svg" width="80" height="80" xmlns:xlink="http://www.w3.org/1999/xlink" viewBox="0 0 80 80">
  <defs>
    <style>
      .cls-1 {
        fill: none;
      }

      .cls-2 {
        clip-path: url(#clippath);
      }

      .cls-3 {
        clip-path: url(#clippath-1);
      }

      .cls-4 {
        clip-path: url(#clippath-2);
      }

      .cls-5 {
        opacity: .54;
      }

      .cls-6 {
        fill: #47c7ef;
      }

      .cls-6, .cls-7, .cls-8, .cls-9, .cls-10, .cls-11, .cls-12, .cls-13, .cls-14, .cls-15 {
        fill-rule: evenodd;
      }

      .cls-7 {
        fill: #87d6f8;
      }

      .cls-8 {
        fill: #dc9928;
      }

      .cls-9 {
        fill: #c58920;
      }

      .cls-10 {
        fill: #cbefff;
      }

      .cls-11 {
        fill: #dec080;
      }

      .cls-12 {
        fill: #fff;
      }

      .cls-13 {
        fill: #e8d4a9;
      }

      .cls-14 {
        fill: #eac27e;
      }

      .cls-15 {
        fill: #0194c7;
      }
    </style>
    <clipPath id="clippath">
      <rect class="cls-1" x="3.8" y="14.84" width="72.39" height="46.93"/>
    </clipPath>
    <clipPath id="clippath-1">
      <rect class="cls-1" x="3.8" y="14.84" width="72.39" height="46.93"/>
    </clipPath>
    <clipPath id="clippath-2">
      <rect class="cls-1" x="60.37" y="42.87" width="3.98" height="6.34"/>
    </clipPath>
  </defs>
  <g class="cls-2">
    <g class="cls-3">
      <g>
        <path class="cls-15" d="m63.89,14.84H16.14c-1.28,0-2.32,1.04-2.32,2.32v30.84c0,1.28,1.04,2.32,2.32,2.32h47.76c1.28,0,2.32-1.04,2.32-2.32v-30.84c0-1.28-1.04-2.32-2.32-2.32"/>
        <path class="cls-10" d="m17.83,17.46h44.36c.88,0,1.6.72,1.6,1.6v27.04c0,.88-.72,1.6-1.6,1.6H17.83c-.88,0-1.6-.72-1.6-1.6v-27.04c0-.88.72-1.6,1.6-1.6"/>
        <path class="cls-15" d="m63.96,51.63H16.04c-.95,0-2.3.05-2.94.59l-9.3,6.82c0,1.31-.15,2.72,2.23,2.73h67.93c2.37,0,2.23-1.43,2.23-2.73l-9.29-6.82c-.64-.54-2-.59-2.94-.59"/>
        <path class="cls-7" d="m63.96,50.33H15.99c-1.21,0-2.4.19-2.68.44-3.12,2.69-6.24,5.39-9.35,8.08-.52.45.4.82,2.08.82h67.86c1.71,0,2.68-.39,2.15-.85-3.1-2.68-6.2-5.36-9.31-8.04-.29-.25-1.55-.45-2.78-.45"/>
        <path class="cls-15" d="m16.6,51.63h46.8c.35,0,.68.15.92.41l1.98,2.19c.06.07.1.15.11.23v.15c-.03.22-.23.39-.46.39H14.03c-.25,0-.46-.21-.46-.46,0-.11.04-.23.12-.31l1.99-2.19c.23-.26.57-.4.92-.4"/>
        <path class="cls-15" d="m45.48,55.75c.32,0,.6.22.68.54.11.46.22.85.33,1.28.09.37-.13.75-.51.84-.05.01-.11.02-.17.02h-11.63c-.38,0-.69-.31-.69-.69,0-.06,0-.11.02-.17.11-.43.22-.82.33-1.28.07-.32.35-.54.68-.54h10.97Z"/>
        <path class="cls-6" d="m46.84,25.93h-25.16c-1.63,0-2.6,1.34-2.15,2.97l4.07,14.71c.45,1.64,2.16,2.97,3.79,2.97h25.16c1.64,0,2.6-1.34,2.15-2.97l-4.07-14.71c-.45-1.64-2.16-2.97-3.8-2.97"/>
        <path class="cls-12" d="m58.11,27v13.55c0,1.64-1.33,2.97-2.97,2.97h-25.16c-1.64,0-2.97-1.33-2.97-2.97v-13.55h31.1Z"/>
        <path class="cls-15" d="m29.98,21.56h25.16c1.64,0,2.97,1.33,2.97,2.97v2.46h-31.1v-2.46c0-1.64,1.33-2.97,2.97-2.97"/>
        <path class="cls-10" d="m51.08,23.55c-.59,0-1.06.48-1.06,1.06s.48,1.06,1.06,1.06,1.06-.48,1.06-1.06c0-.59-.48-1.06-1.06-1.06h0"/>
        <path class="cls-10" d="m47.87,23.55c-.59,0-1.06.48-1.06,1.07,0,.59.48,1.06,1.07,1.06.59,0,1.06-.48,1.06-1.06,0-.59-.48-1.06-1.06-1.06,0,0,0,0,0,0"/>
        <path class="cls-10" d="m54.3,23.55c-.59,0-1.06.48-1.06,1.06s.48,1.06,1.06,1.06,1.06-.48,1.06-1.06c0-.59-.48-1.06-1.06-1.06h0"/>
        <path class="cls-12" d="m42.89,30.47h9.74c.96,0,1.73.77,1.73,1.73s-.77,1.73-1.73,1.73h-9.74c-.96,0-1.73-.77-1.73-1.73s.77-1.73,1.73-1.73"/>
        <path class="cls-13" d="m42.89,30.26h9.74c1.07,0,1.94.87,1.94,1.94,0,1.07-.87,1.94-1.94,1.94h-9.74c-1.07,0-1.94-.87-1.94-1.94,0-1.07.87-1.94,1.94-1.94m9.74.42h-9.74c-.84,0-1.52.68-1.52,1.52s.68,1.52,1.52,1.52h9.74c.84,0,1.52-.68,1.52-1.52s-.68-1.52-1.52-1.52"/>
        <path class="cls-11" d="m44.68,32.91s-.04.06-.06.06-.05,0-.08-.03l-.25-.18s-.06-.05-.06-.07.01-.04.04-.08l.29-.31-.41-.07s-.07-.02-.08-.03,0-.05,0-.09l.1-.3s.03-.07.05-.08c.03,0,.06,0,.09.02l.38.17-.06-.4s0-.07,0-.09c.03-.02.06-.03.09-.02h.31s.07,0,.08.02c.01.03.02.06,0,.09l-.05.4.37-.17s.07-.03.08-.02.03.03.05.08l.1.3s.02.07,0,.09-.04.03-.08.03l-.41.07.29.31s.04.06.04.08c0,.02-.02.04-.06.07l-.25.18s-.07.04-.08.03-.03-.03-.06-.06l-.2-.38-.2.38Zm1.93,0s-.04.06-.06.06-.05,0-.08-.03l-.25-.18s-.06-.05-.06-.07.01-.04.04-.08l.29-.31-.41-.07s-.07-.02-.08-.03,0-.05,0-.09l.1-.3s.03-.07.05-.08c.03,0,.06,0,.09.02l.38.17-.06-.4s0-.07,0-.09c.03-.02.06-.03.09-.02h.31s.07,0,.08.02c.01.03.02.06,0,.09l-.05.4.37-.17s.07-.03.08-.02.03.03.05.08l.1.3s.02.07,0,.09-.04.03-.08.03l-.41.07.29.31s.04.06.04.08c0,.02-.02.04-.06.07l-.25.18s-.07.04-.08.03-.03-.03-.06-.06l-.2-.38-.2.38Zm1.93,0s-.04.06-.06.06-.05,0-.08-.03l-.25-.18s-.06-.05-.06-.07.01-.04.04-.08l.29-.31-.41-.07s-.07-.02-.08-.03,0-.05,0-.09l.1-.3s.03-.07.05-.08c.03,0,.06,0,.09.02l.38.17-.06-.4s0-.07,0-.09c.03-.02.06-.03.09-.02h.31s.07,0,.08.02c.01.03.02.06,0,.09l-.05.4.37-.17s.07-.03.08-.02.03.03.05.08l.1.3s.02.07,0,.09-.04.03-.08.03l-.41.07.29.31s.04.06.04.08-.02.04-.06.07l-.25.18s-.07.04-.08.03-.03-.03-.06-.06l-.2-.38-.19.38Zm1.93,0s-.04.06-.06.06-.05,0-.08-.03l-.25-.18s-.06-.05-.06-.07.01-.04.04-.08l.29-.31-.41-.07s-.07-.02-.08-.03,0-.05,0-.09l.1-.3s.03-.07.05-.08c.03,0,.06,0,.09.02l.38.17-.06-.4s0-.07,0-.09c.03-.02.06-.03.09-.02h.31s.07,0,.08.02c.01.03.02.06,0,.09l-.05.4.37-.17s.07-.03.08-.02.03.03.05.08l.1.3s.02.07,0,.09-.04.03-.08.03l-.41.07.29.31s.04.06.04.08c0,.02-.02.04-.06.07l-.25.18s-.07.04-.08.03-.03-.03-.06-.06l-.2-.38-.2.38Z"/>
        <path class="cls-9" d="m42.89,35.58h9.74c1.07,0,1.94.87,1.94,1.94s-.87,1.94-1.94,1.94h-9.74c-1.07,0-1.94-.87-1.94-1.94,0-1.07.87-1.94,1.94-1.94"/>
        <path class="cls-8" d="m36.58,34.55l-2.55,2.55-1.73-1.73.67-.67,1.06,1.06,1.88-1.88.67.67Zm-2.18,3.58c1.59,0,2.88-1.29,2.88-2.88s-1.29-2.88-2.88-2.88c-1.59,0-2.88,1.29-2.88,2.88h0c0,1.59,1.29,2.88,2.88,2.88"/>
        <path class="cls-14" d="m42.89,35.28h9.74c1.07,0,1.94.87,1.94,1.94s-.87,1.94-1.94,1.94h-9.74c-1.07,0-1.94-.87-1.94-1.94,0-1.07.87-1.94,1.94-1.94"/>
        <path class="cls-12" d="m45.96,36.36c.14,0,.28.02.42.08.11.05.21.13.27.23.13.21.13.48,0,.69-.07.1-.16.18-.27.23-.13.06-.27.08-.42.08h-.25v.42h-.58v-1.72h.83Zm-.04.85c.06,0,.13-.01.18-.05.08-.08.08-.21,0-.3-.05-.04-.11-.06-.18-.05h-.21v.4h.21Zm2.1.57l.12.3h.6l-.75-1.72h-.57l-.75,1.72h.59l.12-.3h.66Zm-.16-.42h-.34l.17-.43.17.43Zm1.88.09v.63h-.58v-.63l-.65-1.09h.61l.35.6.35-.6h.56l-.65,1.1Z"/>
        <g class="cls-5">
          <g class="cls-4">
            <path class="cls-15" d="m60.37,42.87l3.79,2.97-1.18.47,1.37,2.37-.94.54-1.37-2.37-.99.79-.67-4.77Z"/>
          </g>
        </g>
        <path class="cls-12" d="m60.9,42.22l3.79,2.97-1.18.47,1.37,2.37-.94.54-1.37-2.37-.99.79-.67-4.77Z"/>
      </g>
    </g>
  </g>
</svg>