<svg xmlns="http://www.w3.org/2000/svg" width="53" height="35.016" viewBox="0 0 53 35.016"><g transform="translate(-168.59 -3450.524)"><path d="M188.37,3464.734h-7.22v20.68h6c7.33,0,11.93-3.36,11.93-10.36C199.03,3468.734,194.88,3464.734,188.37,3464.734Zm-1.44,15.93v-11.14h1c3.14,0,5.46,1.76,5.51,5.41C193.44,3479.194,190.59,3480.664,186.93,3480.664Z" fill="#fff"/><path d="M205.95,3474.744h0v.27a10.43,10.43,0,0,0,10.35,10.51h.39a7.335,7.335,0,0,0,4.71-1.32v-5.46a7.669,7.669,0,0,1-4.41,1.51,5.27,5.27,0,0,1-5.4-5.13v-.37a5.361,5.361,0,0,1,5.17-5.54h.22a7.848,7.848,0,0,1,4.42,1.54v-5.46a11.162,11.162,0,0,0-4.6-.94,10.622,10.622,0,0,0-10.85,10.385Z" fill="#fff"/><path d="M168.77,3485.414h5.65l.04-7.91h5.49v-4.78h-5.46l-.03-3.2h5.91v-4.79h-11.6Z" fill="#fff"/><rect width="5.65" height="20.68" transform="translate(199.63 3464.734)" fill="#fff"/><path d="M170.59,3458.024l-.2-4.5,2.6,7.12h1.37l2.62-7.12-.2,4.5v2.62h2v-9.59h-2.62l-2.47,7-2.49-7h-2.61v9.59h2Z" fill="#fff"/><path d="M182.52,3460.524a3.929,3.929,0,0,0,1.5.27,4.019,4.019,0,0,0,1-.15,3.582,3.582,0,0,0,.79-.29,2.893,2.893,0,0,0,.61-.41,2.8,2.8,0,0,0,.43-.42l-.94-1a1.981,1.981,0,0,1-.76.6,2.384,2.384,0,0,1-1,.19,1.887,1.887,0,0,1-.67-.11,1.6,1.6,0,0,1-.52-.31,1.629,1.629,0,0,1-.37-.5,2.008,2.008,0,0,1-.19-.63h4.58v-.86a4.744,4.744,0,0,0-.2-1.44,3,3,0,0,0-.6-1.1,2.745,2.745,0,0,0-1-.71,3.767,3.767,0,0,0-2.76,0,3.016,3.016,0,0,0-1.06.76,3.434,3.434,0,0,0-.67,1.11,4.524,4.524,0,0,0-.24,1.49v.25a3.725,3.725,0,0,0,.24,1.35,3.137,3.137,0,0,0,.71,1.1A3.315,3.315,0,0,0,182.52,3460.524Zm.07-4.73h-.07a1.608,1.608,0,0,1,.28-.46,1.217,1.217,0,0,1,.41-.3,1.317,1.317,0,0,1,.55-.11,1.551,1.551,0,0,1,.58.1,1.007,1.007,0,0,1,.4.28,1.16,1.16,0,0,1,.23.42,1.868,1.868,0,0,1,.08.53v.14h-2.64A2.694,2.694,0,0,1,182.59,3455.794Z" fill="#fff"/><path d="M190.59,3455.6a1.3,1.3,0,0,1,.47-.49,1.374,1.374,0,0,1,.72-.18,1.82,1.82,0,0,1,.46.05.782.782,0,0,1,.34.18.826.826,0,0,1,.19.36,1.964,1.964,0,0,1,.07.59v4.58h1.92v-4.89a1.364,1.364,0,0,1,.45-.6,1.23,1.23,0,0,1,.74-.22,2.01,2.01,0,0,1,.45,0,.762.762,0,0,1,.34.18.84.84,0,0,1,.22.36,1.873,1.873,0,0,1,.08.58v4.54h1.9v-4.54a4.259,4.259,0,0,0-.16-1.27,2.146,2.146,0,0,0-.47-.84,1.753,1.753,0,0,0-.72-.47,3.02,3.02,0,0,0-.93-.14,2.653,2.653,0,0,0-1.27.29,2.55,2.55,0,0,0-.89.8,1.747,1.747,0,0,0-.77-.83,2.446,2.446,0,0,0-1.14-.26,2.747,2.747,0,0,0-1.2.26,2.567,2.567,0,0,0-.87.68l-.06-.8h-1.8v7.08h1.93Z" fill="#fff"/><path d="M202.85,3459.864a2.374,2.374,0,0,0,.74.66,2.325,2.325,0,0,0,1.1.26,2.665,2.665,0,0,0,1.28-.26,2.4,2.4,0,0,0,.87-.75,3.342,3.342,0,0,0,.52-1.15,5.817,5.817,0,0,0,.17-1.47v-.17a5.753,5.753,0,0,0-.18-1.46,3.336,3.336,0,0,0-.53-1.12,2.49,2.49,0,0,0-.88-.75,2.681,2.681,0,0,0-1.23-.27,2.342,2.342,0,0,0-1,.2,2.253,2.253,0,0,0-.75.57v-3.63h-1.92v10.1h1.72Zm.12-4.21a1.275,1.275,0,0,1,.47-.55,1.454,1.454,0,0,1,.79-.19,1.278,1.278,0,0,1,.68.16,1.2,1.2,0,0,1,.42.45,1.984,1.984,0,0,1,.2.68,5.109,5.109,0,0,1,.06.8v.14a5.351,5.351,0,0,1,0,.84,1.915,1.915,0,0,1-.26.7,1.163,1.163,0,0,1-.42.43,1.273,1.273,0,0,1-.67.16,1.45,1.45,0,0,1-.8-.2,1.281,1.281,0,0,1-.47-.55Z" fill="#fff"/><path d="M209.97,3459.764a3.312,3.312,0,0,0,1.12.76,3.929,3.929,0,0,0,1.5.27,3.991,3.991,0,0,0,1-.17,3.582,3.582,0,0,0,.79-.29,2.884,2.884,0,0,0,.61-.41,2.79,2.79,0,0,0,.43-.47l-.94-1a1.98,1.98,0,0,1-.76.6,2.384,2.384,0,0,1-1,.19,1.887,1.887,0,0,1-.67-.11,1.613,1.613,0,0,1-.46-.33,1.636,1.636,0,0,1-.37-.48,2.033,2.033,0,0,1-.19-.63h4.56v-.81a4.737,4.737,0,0,0-.24-1.42,3,3,0,0,0-.6-1.1,2.745,2.745,0,0,0-1-.71,3.767,3.767,0,0,0-2.76,0,3.016,3.016,0,0,0-1.06.76,3.434,3.434,0,0,0-.67,1.11,4.525,4.525,0,0,0-.24,1.49v.25a3.725,3.725,0,0,0,.24,1.35A3.145,3.145,0,0,0,209.97,3459.764Zm1.18-4h0a1.608,1.608,0,0,1,.28-.46,1.217,1.217,0,0,1,.41-.3,1.321,1.321,0,0,1,.55-.11,1.54,1.54,0,0,1,.57.1,1.052,1.052,0,0,1,.4.28,1.155,1.155,0,0,1,.23.45,1.868,1.868,0,0,1,.08.53v.14H211a2.705,2.705,0,0,1,.15-.6Z" fill="#fff"/><path d="M221.31,3453.394h-.32a1.681,1.681,0,0,0-.93.26,2.157,2.157,0,0,0-.67.72v-.85h-1.87v7.17h2v-4.66a1.171,1.171,0,0,1,.47-.51,1.948,1.948,0,0,1,.91-.19h.69v-1.88Z" fill="#fff"/></g></svg>