<svg xmlns="http://www.w3.org/2000/svg" width="39.95" height="40.969" viewBox="0 0 39.95 40.969"><path d="M.53,11.9v4.194H3.622V30.375H37.329V16.091H40.48v-4.05L20.733.43Zm20.2-7.19-13,7.681V26.768H33.446V12.389L20.733,4.768ZM13.819,17.889V14.294H27.263v3.595Zm0,1.726H27.263v3.535H13.819V19.614ZM21.14,41.375V36.833h2.4c1.69,0,2.876.515,2.876,2.337s-1.078,2.169-2.924,2.169Zm1.2-3.535h1.126a1.378,1.378,0,0,1,1.594,1.33c0,1.031-.671,1.2-1.63,1.2H22.41V37.8Zm11.108,3.5V36.833h3.271c1.2,0,1.749.407,1.749,1.426,0,.743-.4,1.078-1.2,1.2l1.294,1.881H37.2l-1.354-1.881h-1.2v1.881ZM36.538,37.8c.515,0,.731.06.731.347s-.168.336-.779.336H34.7V37.8Zm-22.2-.971h1.4l2.4,2.792V36.833h1.2v4.505H17.869l-2.4-2.732v2.732h-1.2V36.833Zm-11.611,0h1.2v3.475h3.2v.971H2.747V36.833Zm5.728,4.505V36.833h4.326V37.8H9.769v.683H12.3v.971H9.769v.971H12.8V41.4Zm19.28-4.505h4.278V37.8H29v.683h2.588v.971H29v.971h3.032v.911H27.755V36.833Zm-16.165-1.1,1.126-4.038h.959l1.126,4.038H13.9l-.252-.911H12.645l-.252.911Zm1.582-3.175.4,1.594h-.731ZM5.3,34.257v-1.09c0-1.019.336-1.594,1.342-1.594S8,32.268,8,33.227v.851a2.11,2.11,0,0,1-.228,1.09l.683.228v.276c-2.313,0-3.092,0-3.092-1.414Zm.839-1.031c0-.743,0-.971.563-.971s.443.12.443.911v1.078c0,.743,0,.911-.5.911s-.5-.228-.5-.959Zm22.12,1.438.683-.12c.108.4.336.623.671.623s.5-.108.5-.4c0-.743-1.8-1.019-1.8-2.157a1.068,1.068,0,0,1,1.2-1.031,1.156,1.156,0,0,1,1.294,1.031l-.563.228c-.168-.347-.336-.575-.671-.575s-.455.12-.455.347c0,.623,1.809,1.078,1.809,2.049a1.343,1.343,0,0,1-1.414,1.2,1.137,1.137,0,0,1-1.294-1.2Zm-6.1-.228v-1.33c0-1.078.5-1.534,1.354-1.534,1.066,0,1.342.4,1.342,1.426v1.2c0,1.09-.276,1.546-1.342,1.546s-1.354-.407-1.354-1.366ZM23,33.071c0-.515,0-.863.5-.863s.515.407.515.863v1.2c0,.683-.168.911-.515.911s-.5-.276-.5-.851V33.071Zm12.786,1.2v-1.2c0-.863.228-1.486,1.354-1.486a1.2,1.2,0,0,1,1.294,1.078l-.563.228c-.06-.4-.288-.683-.671-.683s-.623.455-.623,1.138v.911c0,.575.06.971.623.971.276,0,.383-.168.383-.515v-.455H37.2v-.623h1.2V34.94c0,.443-.252.863-1.126.863-1.126,0-1.462-.347-1.462-1.546ZM25.214,31.717h.839v2.277c0,.851.06,1.2.5,1.2s.515-.228.515-1.138V31.693h.791v2.4c0,1.2-.336,1.69-1.2,1.69-1.2,0-1.414-.443-1.414-1.809V31.693Zm7.513,0h1.078l.9,2.5V31.693h.671v4.038H34.369L33.446,33v2.732h-.719V31.717Zm-23.965,0h.779v2.277c0,.911.06,1.138.515,1.138s.5-.228.5-1.031V31.7H11.4v2.325c0,1.138,0,1.773-1.354,1.773s-1.2-.515-1.2-1.654v-2.4Zm10.233,0h.791v1.51h.959V31.693h.779v4.038h-.779V33.91h-.959v1.821h-.719V31.693Zm-16.344,0H4.688v.551H3.49v1.078H4.616v.575H3.49V35.06h1.2v.623H2.7v-3.99Zm12.438,0h.671v3.415h1.2v.623H15.137V31.693Zm16.237,0h.731v4.038h-.731V31.717Z" transform="translate(-0.53 -0.43)" fill="#fff" fill-rule="evenodd"/></svg>