<svg xmlns="http://www.w3.org/2000/svg" width="25.373" height="26.125" viewBox="0 0 25.373 26.125"><path d="M25.687,33.516H15.106a7.42,7.42,0,0,1-7.4-7.4V14.786a7.42,7.42,0,0,1,7.4-7.4H25.687a7.42,7.42,0,0,1,7.4,7.4V26.12A7.42,7.42,0,0,1,25.687,33.516Zm0-1.893a5.408,5.408,0,0,0,3.845-1.611,5.351,5.351,0,0,0,1.6-3.833V14.786a5.351,5.351,0,0,0-1.6-3.833,5.408,5.408,0,0,0-3.845-1.611H15.106a5.408,5.408,0,0,0-3.845,1.611,5.351,5.351,0,0,0-1.6,3.833V26.12a5.351,5.351,0,0,0,1.6,3.833,5.408,5.408,0,0,0,3.845,1.67Z" transform="translate(-7.71 -7.39)" fill="#fff"/><path d="M26.6,19.456a7.055,7.055,0,1,1-7.113-7h.059A7.055,7.055,0,0,1,26.6,19.456Zm-7.055-4.574a4.585,4.585,0,1,0,4.585,4.585h0a4.586,4.586,0,0,0-4.574-4.585Z" transform="translate(-6.87 -6.499)" fill="#fff"/><ellipse cx="1.658" cy="1.658" rx="1.658" ry="1.658" transform="translate(18.177 4.197)" fill="#fff"/></svg>