<svg xmlns="http://www.w3.org/2000/svg" width="301.042" height="66.036" viewBox="0 0 301.042 66.036">
  <g id="Group_1191" data-name="Group 1191" transform="translate(-31.212 -17.878)">
    <g id="Group_989" data-name="Group 989" transform="translate(31.212 18.703)">
      <g id="Group_988" data-name="Group 988" transform="translate(0 0)">
        <path id="Path_2699" data-name="Path 2699" d="M54.949,32.063c0,7.03-4.687,9.981-10.979,9.981H37.288V52.806H31.212V22.429H44.491C50.219,22.429,54.949,25.6,54.949,32.063Zm-6.249.131c0-2.647-1.736-3.863-4.426-3.863H37.288v7.811h7.073C47.182,36.142,48.7,34.84,48.7,32.194Z" transform="translate(-31.212 -21.171)" fill="#005c85"/>
        <path id="Path_2700" data-name="Path 2700" d="M104.316,49.865a18.731,18.731,0,0,1-.087,1.91H90.6a4.382,4.382,0,0,0,4.687,4.3,5.087,5.087,0,0,0,3.906-1.6l4.253,3.558a10.631,10.631,0,0,1-8.158,3.689c-6.553,0-10.719-4.644-10.719-11.847,0-6.986,4.383-11.89,10.155-11.89C100.8,37.975,104.316,43.357,104.316,49.865Zm-5.815-2.6c-.174-2.04-1.389-4.08-4.079-4.08-2.17,0-3.515,1.779-3.732,4.08Z" transform="translate(-60.143 -29.6)" fill="#005c85"/>
        <path id="Path_2701" data-name="Path 2701" d="M151.814,49.865c0,6.987-4.383,11.847-10.328,11.847S131.2,56.852,131.2,49.865s4.34-11.89,10.285-11.89S151.814,42.879,151.814,49.865Zm-6.075,0c0-3.472-1.389-6.119-4.253-6.119s-4.209,2.6-4.209,6.119,1.345,6.075,4.209,6.075S145.739,53.033,145.739,49.865Z" transform="translate(-85.425 -29.6)" fill="#005c85"/>
        <path id="Path_2702" data-name="Path 2702" d="M201.66,50.126c0,6.813-3.211,11.587-8.853,11.587a7.217,7.217,0,0,1-4.817-1.78v6.683L182,69.61V38.452h5.989v1.432a7.024,7.024,0,0,1,4.817-1.909C197.668,37.975,201.66,41.62,201.66,50.126Zm-6.076.13c0-4.686-1.562-6.64-3.906-6.64a4.2,4.2,0,0,0-3.689,1.909v8.593a4.767,4.767,0,0,0,4.036,1.952C194.326,56.07,195.585,54.075,195.585,50.256Z" transform="translate(-112.969 -29.6)" fill="#005c85"/>
        <path id="Path_2703" data-name="Path 2703" d="M237.372,51.316h-5.988V22.675l5.988-2.994Z" transform="translate(-139.744 -19.681)" fill="#005c85"/>
        <path id="Path_2704" data-name="Path 2704" d="M270.46,49.865a18.734,18.734,0,0,1-.087,1.91H256.747a4.382,4.382,0,0,0,4.686,4.3,5.086,5.086,0,0,0,3.906-1.6l4.253,3.558a10.631,10.631,0,0,1-8.159,3.689c-6.552,0-10.718-4.644-10.718-11.847,0-6.986,4.383-11.89,10.154-11.89C266.945,37.975,270.46,43.357,270.46,49.865Zm-5.816-2.6c-.173-2.04-1.388-4.08-4.079-4.08-2.17,0-3.515,1.779-3.732,4.08Z" transform="translate(-150.225 -29.6)" fill="#005c85"/>
        <path id="Path_2705" data-name="Path 2705" d="M315.991,54.6c0,5.25-4.167,7.117-9.287,7.117a17.887,17.887,0,0,1-9.547-2.647l2-4.557a15.9,15.9,0,0,0,7.9,2.083c2.343,0,3.038-.564,3.038-1.736,0-1.042-.824-1.562-3.341-2.3-5.468-1.649-8.983-2.994-8.983-7.811,0-4.73,3.776-6.77,9.113-6.77a18.156,18.156,0,0,1,8.419,2.213l-1.909,4.73a14.765,14.765,0,0,0-6.64-1.823c-2.43,0-3.082.477-3.082,1.476,0,.954.695,1.345,4.731,2.647C312.475,48.564,315.991,50.039,315.991,54.6Z" transform="translate(-175.406 -29.6)" fill="#005c85"/>
        <path id="Path_2706" data-name="Path 2706" d="M388.295,43c0,6.38-4.3,9.808-10.805,9.808h-13.8V22.429h13.93c5.9,0,9.633,2.821,9.633,8.029a6.674,6.674,0,0,1-3.21,5.9A6.945,6.945,0,0,1,388.295,43Zm-7.2-12.064c0-1.909-1.085-2.908-3.732-2.908h-7.725V33.8h8.028C380.18,33.8,381.091,32.627,381.091,30.935Zm.955,12.151c0-2.6-1.388-3.906-4.34-3.906h-8.071v7.854h8.071C380.658,47.034,382.046,45.472,382.046,43.085Z" transform="translate(-211.48 -21.171)" fill="#005c85"/>
        <path id="Path_2707" data-name="Path 2707" d="M440.741,61.235h-5.989V59.716a7.273,7.273,0,0,1-5.12,2c-4.253,0-8.506-2.6-8.506-8.115,0-5.034,4.08-7.551,9.243-7.551a9.447,9.447,0,0,1,4.383.911V45.83c0-1.606-1.085-2.908-3.255-2.908a11.234,11.234,0,0,0-6.249,1.519l-2.3-4.166a15.32,15.32,0,0,1,8.549-2.3c5.511,0,9.243,2.864,9.243,7.985Zm-5.989-6.683V51.688a6.935,6.935,0,0,0-4.166-.955c-2.257,0-3.472,1.042-3.472,2.864,0,1.606.911,3.037,3.472,3.037A4.9,4.9,0,0,0,434.752,54.552Z" transform="translate(-242.621 -29.6)" fill="#005c85"/>
        <path id="Path_2708" data-name="Path 2708" d="M491.575,61.235h-5.989V48.911c0-4.08-1.388-5.295-3.862-5.295s-3.906,1.215-3.906,5.164V61.235H471.83V38.452h5.989v1.518a7.47,7.47,0,0,1,5.338-2c5.814,0,8.418,3.992,8.418,10.415Z" transform="translate(-270.112 -29.6)" fill="#005c85"/>
        <path id="Path_2709" data-name="Path 2709" d="M542.61,51.316h-6.553l-4.34-10.5-2.907,3.6v6.9h-5.989V22.675l5.989-2.994V31.789c0,1.388-.043,3.731-.087,4.86.608-.911,1.649-2.344,2.43-3.342l3.689-4.773h7.073l-5.859,7.247Z" transform="translate(-297.759 -19.681)" fill="#005c85"/>
      </g>
    </g>
    <g id="Group_994" data-name="Group 994" transform="translate(254.49 17.878)">
      <g id="Group_990" data-name="Group 990" transform="translate(0 0.619)">
        <path id="Path_2710" data-name="Path 2710" d="M518.926,84.647,596.69,41.733l-54.058-22.5,13.426,22.706Z" transform="translate(-518.926 -19.23)" fill="#73c9e1"/>
        <path id="Path_2711" data-name="Path 2711" d="M518.926,84.646l53.9-42.7L542.633,19.229l13.426,22.706Z" transform="translate(-518.926 -19.229)" fill="#34b5d9"/>
        <path id="Path_2712" data-name="Path 2712" d="M600.9,41.945,570.709,19.229l13.426,22.706Z" transform="translate(-547.002 -19.229)" fill="#0083bf"/>
      </g>
      <g id="Group_993" data-name="Group 993" transform="translate(56.316)">
        <g id="Group_992" data-name="Group 992">
          <g id="Group_991" data-name="Group 991">
            <path id="Path_2713" data-name="Path 2713" d="M641.938,17.878" transform="translate(-641.938 -17.878)" fill="#73c9e1"/>
          </g>
        </g>
      </g>
    </g>
    <g id="Group_996" data-name="Group 996" transform="translate(89.439 63.135)">
      <g id="Group_995" data-name="Group 995">
        <path id="Path_2714" data-name="Path 2714" d="M158.4,127.946l4.97-11.042h.388l4.938,11.042h-1.258l-1.211-2.687h-5.358l-1.211,2.687Zm2.889-3.65h4.5l-2.236-5.187Z" transform="translate(-158.4 -116.827)" fill="#75797a"/>
        <path id="Path_2715" data-name="Path 2715" d="M196.83,128.113v-10.9h6.29v.978h-5.125v3.835h4.085V123h-4.085v5.11Z" transform="translate(-179.237 -116.993)" fill="#75797a"/>
        <path id="Path_2716" data-name="Path 2716" d="M217.465,123.092h1.18V131.3h-1.18Z" transform="translate(-190.425 -120.182)" fill="#75797a"/>
        <path id="Path_2717" data-name="Path 2717" d="M236.167,131.273l-5.9-6.068v5.917h-1.13v-8.209l.287-.152,5.883,6.119v-5.967h1.129v8.209Z" transform="translate(-196.754 -120.002)" fill="#75797a"/>
        <path id="Path_2718" data-name="Path 2718" d="M263.9,122.912l-3.1,8.361h-.4l-2.377-6.186-2.377,6.186h-.421l-3.069-8.361H253.5l2.057,5.749,2.31-5.9h.421l2.259,5.867,2.14-5.715Z" transform="translate(-209.233 -120.002)" fill="#75797a"/>
        <path id="Path_2719" data-name="Path 2719" d="M280.511,131.121l4.113-8.361h.4l4.146,8.361h-1.332L287,129.4h-4.383l-.843,1.719Zm2.495-2.613h3.574l-1.787-3.692Z" transform="translate(-224.608 -120.002)" fill="#75797a"/>
        <path id="Path_2720" data-name="Path 2720" d="M310.166,127.848l2.528,3.254h-1.516c-.759-.978-1.5-1.99-2.243-2.967a6.086,6.086,0,0,1-.808.05,7.023,7.023,0,0,1-.843-.05V131.1h-1.163c0-2.714-.017-5.445-.017-8.159a12.356,12.356,0,0,1,2.124-.218c2.175,0,3.709.808,3.709,2.663A2.561,2.561,0,0,1,310.166,127.848Zm-2.882-.691a7.758,7.758,0,0,0,.859.05c1.6,0,2.6-.607,2.6-1.8,0-1.13-1.1-1.635-2.393-1.635a5.707,5.707,0,0,0-1.062.1Z" transform="translate(-238.484 -119.982)" fill="#75797a"/>
        <path id="Path_2721" data-name="Path 2721" d="M327.831,122.931c5.462-.877,7.232,1.871,7.232,4.011,0,2.225-1.72,5.041-7.232,4.164Zm1.18,7.214c2.782.338,4.838-.775,4.838-3.2,0-2.09-1.922-3.438-4.838-3.033Z" transform="translate(-250.264 -120.003)" fill="#75797a"/>
        <path id="Path_2722" data-name="Path 2722" d="M371.09,126.488a5.759,5.759,0,0,1-4.271,1.584,5.669,5.669,0,0,1,.078-11.337,5.967,5.967,0,0,1,4.1,1.553l-.683.839a5.143,5.143,0,0,0-3.4-1.367,4.648,4.648,0,0,0,.016,9.287,5.5,5.5,0,0,0,3.478-1.335Z" transform="translate(-268.364 -116.735)" fill="#75797a"/>
        <path id="Path_2723" data-name="Path 2723" d="M388.833,126.912a4.349,4.349,0,0,1,8.7,0,4.349,4.349,0,1,1-8.7,0Zm7.484,0a3.2,3.2,0,0,0-3.152-3.288,3.162,3.162,0,0,0-3.136,3.288,3.149,3.149,0,1,0,6.287,0Z" transform="translate(-283.339 -119.922)" fill="#75797a"/>
        <path id="Path_2724" data-name="Path 2724" d="M415.276,131.1v-8.277l.253-.1,3.911,4.45,3.911-4.45.253.1V131.1h-1.18v-5.715l-2.882,3.338h-.2l-2.882-3.338V131.1Z" transform="translate(-297.677 -119.982)" fill="#75797a"/>
        <path id="Path_2725" data-name="Path 2725" d="M444.231,128.438c-.236,0-.472-.016-.708-.034v2.7h-1.18v-8.159a11.332,11.332,0,0,1,2.074-.218c2.124,0,3.759.808,3.759,2.764C448.176,127.663,446.287,128.438,444.231,128.438Zm-.708-1.028c.236.016.472.033.708.033,1.517,0,2.748-.505,2.748-1.9,0-1.247-1.18-1.753-2.479-1.753a6.419,6.419,0,0,0-.977.084Z" transform="translate(-312.352 -119.982)" fill="#75797a"/>
        <path id="Path_2726" data-name="Path 2726" d="M458.915,131.121l4.113-8.361h.4l4.146,8.361h-1.332l-.842-1.719h-4.383l-.843,1.719Zm2.495-2.613h3.574l-1.787-3.692Z" transform="translate(-321.337 -120.002)" fill="#75797a"/>
        <path id="Path_2727" data-name="Path 2727" d="M491.539,131.273l-5.9-6.068v5.917h-1.13v-8.209l.287-.152,5.883,6.119v-5.967h1.129v8.209Z" transform="translate(-335.215 -120.002)" fill="#75797a"/>
        <path id="Path_2728" data-name="Path 2728" d="M511.049,128.065c-1.164-1.669-2.343-3.321-3.523-4.973h1.45l2.7,3.743,2.731-3.743h1.348c-1.18,1.651-2.343,3.3-3.523,4.939v3.27h-1.18Z" transform="translate(-347.694 -120.182)" fill="#75797a"/>
      </g>
    </g>
  </g>
</svg>
